<svg xmlns="http://www.w3.org/2000/svg" style="display:none">
  <defs>
    <symbol id="brand" viewBox="0 0 16 16">
      <path d="M2 4l4 4l-4 4" fill="none" stroke="currentColor" stroke-width="1.6" stroke-linecap="round" stroke-linejoin="round"></path>
      <path d="M9 12h5" fill="none" stroke="currentColor" stroke-width="1.6" stroke-linecap="round" stroke-linejoin="round"></path>
    </symbol>
    <symbol id="search" viewBox="0 0 16 16">
      <rect x="2" y="2" width="12" height="12" rx="1" fill="none" stroke="currentColor" stroke-width="1.5"></rect>
      <path d="M5 6l2 2l-2 2M8 10h3" fill="none" stroke="currentColor" stroke-width="1.5" stroke-linecap="round"></path>
    </symbol>
    <symbol id="terminal" viewBox="0 0 16 16">
      <rect x="2" y="3" width="12" height="10" rx="1" fill="none" stroke="currentColor" stroke-width="1.5"></rect>
      <path d="M5 7l2 1.5L5 10M8 10h3" fill="none" stroke="currentColor" stroke-width="1.5" stroke-linecap="round" stroke-linejoin="round"></path>
    </symbol>
    <symbol id="agent" viewBox="0 0 16 16">
      <circle cx="8" cy="6" r="2.5" fill="none" stroke="currentColor" stroke-width="1.5"></circle>
      <path d="M3 13c.8-2.5 2.8-4 5-4s4.2 1.5 5 4" fill="none" stroke="currentColor" stroke-width="1.5" stroke-linecap="round"></path>
    </symbol>
    <symbol id="worktree" viewBox="0 0 16 16">
      <circle cx="4" cy="4" r="1.5" fill="none" stroke="currentColor" stroke-width="1.5"></circle>
      <circle cx="4" cy="12" r="1.5" fill="none" stroke="currentColor" stroke-width="1.5"></circle>
      <circle cx="12" cy="8" r="1.5" fill="none" stroke="currentColor" stroke-width="1.5"></circle>
      <path d="M4 5.5v5M5.5 4H9a2 2 0 012 2v.5M5.5 12H9a2 2 0 002-2v-.5" fill="none" stroke="currentColor" stroke-width="1.5" stroke-linecap="round"></path>
    </symbol>
    <symbol id="session" viewBox="0 0 16 16">
      <path d="M2 5h12v8H2zM2 5l6-3l6 3" fill="none" stroke="currentColor" stroke-width="1.5" stroke-linecap="round" stroke-linejoin="round"></path>
    </symbol>
    <symbol id="env" viewBox="0 0 16 16">
      <path d="M3 4h10M3 8h10M3 12h10" fill="none" stroke="currentColor" stroke-width="1.5" stroke-linecap="round"></path>
      <circle cx="5" cy="4" r=".5" fill="currentColor"></circle>
      <circle cx="11" cy="8" r=".5" fill="currentColor"></circle>
      <circle cx="7" cy="12" r=".5" fill="currentColor"></circle>
    </symbol>
    <symbol id="plus" viewBox="0 0 16 16">
      <path d="M8 3v10M3 8h10" fill="none" stroke="currentColor" stroke-width="1.6" stroke-linecap="round"></path>
    </symbol>
    <symbol id="close" viewBox="0 0 16 16">
      <path d="M4 4l8 8M12 4l-8 8" fill="none" stroke="currentColor" stroke-width="1.6" stroke-linecap="round"></path>
    </symbol>
    <symbol id="sidebar" viewBox="0 0 16 16">
      <rect x="2" y="3" width="12" height="10" rx="1" fill="none" stroke="currentColor" stroke-width="1.4"></rect>
      <line x1="6" y1="3" x2="6" y2="13" stroke="currentColor" stroke-width="1.4"></line>
    </symbol>
    <symbol id="fullscreen" viewBox="0 0 16 16">
      <path d="M3 6V3h3M13 6V3h-3M3 10v3h3M13 10v3h-3" fill="none" stroke="currentColor" stroke-width="1.4" stroke-linecap="round"></path>
    </symbol>
    <symbol id="split-right" viewBox="0 0 16 16">
      <rect x="2" y="3" width="12" height="10" rx="1" fill="none" stroke="currentColor" stroke-width="1.4"></rect>
      <line x1="8" y1="3" x2="8" y2="13" stroke="currentColor" stroke-width="1.4"></line>
    </symbol>
    <symbol id="split-down" viewBox="0 0 16 16">
      <rect x="2" y="3" width="12" height="10" rx="1" fill="none" stroke="currentColor" stroke-width="1.4"></rect>
      <line x1="2" y1="8" x2="14" y2="8" stroke="currentColor" stroke-width="1.4"></line>
    </symbol>
    <symbol id="grid" viewBox="0 0 16 16">
      <rect x="2" y="3" width="12" height="10" rx="1" fill="none" stroke="currentColor" stroke-width="1.4"></rect>
      <line x1="8" y1="3" x2="8" y2="13" stroke="currentColor" stroke-width="1.4"></line>
      <line x1="2" y1="8" x2="14" y2="8" stroke="currentColor" stroke-width="1.4"></line>
    </symbol>
    <symbol id="balance" viewBox="0 0 16 16">
      <path d="M4 8h8M6 5l-2 3l2 3M10 5l2 3l-2 3" fill="none" stroke="currentColor" stroke-width="1.4" stroke-linecap="round"></path>
    </symbol>
    <symbol id="settings" viewBox="0 0 16 16">
      <circle cx="8" cy="8" r="2" fill="none" stroke="currentColor" stroke-width="1.4"></circle>
      <path d="M8 1.5v1.5M8 13v1.5M14.5 8H13M3 8H1.5M12.6 3.4l-1 1M4.4 11.6l-1 1M12.6 12.6l-1-1M4.4 4.4l-1-1" fill="none" stroke="currentColor" stroke-width="1.4" stroke-linecap="round" stroke-linejoin="round"></path>
    </symbol>
    <symbol id="collapse" viewBox="0 0 16 16">
      <path d="M4 7l4-3l4 3M4 9l4 3l4-3" fill="none" stroke="currentColor" stroke-width="1.6" stroke-linecap="round"></path>
    </symbol>
    <symbol id="agent-badge" viewBox="0 0 16 16">
      <path d="M4 6l2 2l-2 2" fill="none" stroke="currentColor" stroke-width="1.4" stroke-linecap="round"></path>
      <path d="M8 10h4" fill="none" stroke="currentColor" stroke-width="1.4" stroke-linecap="round"></path>
    </symbol>
    <symbol id="gear" viewBox="0 0 16 16">
      <circle cx="8" cy="8" r="2" fill="none" stroke="currentColor" stroke-width="1.4"></circle>
      <path d="M8 1.5v1.5M8 13v1.5M14.5 8H13M3 8H1.5M12.6 3.4l-1 1M4.4 11.6l-1 1M12.6 12.6l-1-1M4.4 4.4l-1-1" fill="none" stroke="currentColor" stroke-width="1.4" stroke-linecap="round" stroke-linejoin="round"></path>
    </symbol>
    <symbol id="shell" viewBox="0 0 16 16">
      <rect x="2" y="3" width="12" height="10" rx="1" fill="none" stroke="currentColor" stroke-width="1.4"></rect>
      <path d="M4.5 6.5L6.5 8L4.5 9.5M7.5 10h4" fill="none" stroke="currentColor" stroke-width="1.4" stroke-linecap="round" stroke-linejoin="round"></path>
    </symbol>
    <symbol id="kbd" viewBox="0 0 16 16">
      <rect x="1.5" y="4.5" width="13" height="7" rx="1.2" fill="none" stroke="currentColor" stroke-width="1.4"></rect>
      <path d="M4 7.5h.01M7 7.5h.01M10 7.5h.01M4.5 9.5h7" fill="none" stroke="currentColor" stroke-width="1.4" stroke-linecap="round"></path>
    </symbol>
  </defs>
</svg>